# xmcd CD database generated by RipIT
#
# Track frame offsets:
# 150
# 19741
# 39427
# 56331
# 77440
#
# Disc length: 1374 seconds
#
# Revision: 0
# Processed by: cddbd v1.5.2PL0 Copyright (c) Steve Scherf et al.
# Submitted via: RipIT 3.9.0 www.suwald.com/ripit/ripit.html on 2013-10-11 at 23:30
#
DISCID=2c055c05
DTITLE=Sounds Like the End of the World - It All Starts Here
DYEAR=2013
DGENRE=Rock
TTITLE0=It All Starts Here
TTITLE1=Wandering Danzig
TTITLE2=Diffraction Point
TTITLE3=Watching Alex
TTITLE4=Stages of Delusion
EXTD=
EXTT0=
EXTT1=
EXTT2=
EXTT3=
EXTT4=
PLAYORDER=
